<svg class="svg-icon" style="width: 1.07129em; height: 1em; vertical-align: middle; fill: currentColor; overflow: hidden" viewBox="0 0 1097 1024" version="1.1" xmlns="http://www.w3.org/2000/svg"><path d="M1096 297.142857q13.142857 36.571429-85.714286 168-13.714286 18.285714-37.142857 48.571429-22.857143 29.142857-31.428571 41.142857t-17.428572 28.285714-6.857143 24 7.428572 19.714286 18.571428 24.571428 32.571429 30.285715q2.285714 1.142857 2.857143 2.285714 80.571429 74.857143 109.142857 126.285714 1.714286 2.857143 3.714286 7.142857t4 15.142858-0.285715 19.428571-14.285714 15.714286-33.714286 7.142857l-146.285714 2.285714q-13.714286 2.857143-32-2.857143t-29.714286-12.571428l-11.428571-6.857143q-17.142857-12-40-36.571429t-39.142857-44.285714-34.857143-33.142857-32.285714-8.857143q-1.714286 0.571429-4.571429 2t-9.714286 8.285714-12.285714 16.857143-9.714286 29.714286-3.714285 44.285714q0 8.571429-2 15.714286t-4.285715 10.571428l-2.285714 2.857143q-10.285714 10.857143-30.285714 12.571429H537.142857q-40.571429 2.285714-83.428571-9.428572t-75.142857-30.285714-58.857143-37.714286T279.428571 764.571429l-14.285714-13.714286q-5.714286-5.714286-15.714286-17.142857t-40.857142-52-60.571429-86.285715-70-120.571428T3.428571 319.428571q-3.428571-9.142857-3.428571-15.428571t1.714286-9.142857l2.285714-3.428572q8.571429-10.857143 32.571429-10.857142l156.571428-1.142858q6.857143 1.142857 13.142857 3.714286t9.142857 4.857143l2.857143 1.714286q9.142857 6.285714 13.714286 18.285714 11.428571 28.571429 26.285714 59.142857t23.428572 46.571429l9.142857 16.571428q16.571429 34.285714 32 59.428572t27.714286 39.142857T374.285714 550.857143t19.428572 8 15.428571-2.857143q1.142857-0.571429 2.857143-2.857143t6.857143-12.571428 7.714286-26.857143 5.428571-46.285715 0-71.428571q-1.142857-22.857143-5.142857-41.714286t-8-26.285714l-3.428572-6.857143q-14.285714-19.428571-48.571428-24.571428-7.428571-1.142857 2.857143-13.714286 9.142857-10.857143 21.714285-17.142857 30.285714-14.857143 136.571429-13.714286 46.857143 0.571429 77.142857 7.428571 11.428571 2.857143 19.142857 7.714286t11.714286 13.714286 6 18.285714 2 26-0.571429 31.428572-1.428571 40.285714-0.857143 47.142857q0 6.285714-0.571428 24t-0.285715 27.428571 2 23.142858 6.571429 22.285714T661.714286 554.857143q4.571429 1.142857 9.714285 2.285714t14.857143-6.285714 21.714286-19.714286 29.714286-38.285714 38.857143-61.428572q34.285714-59.428571 61.142857-128.571428 2.285714-5.714286 5.714285-10t6.285715-6l2.285714-1.714286 2.857143-1.428571 7.428571-1.714286 11.428572-0.285714 164.571428-1.142857q22.285714-2.857143 36.571429 1.428571t17.714286 9.428571z"></path></svg>